<?xml version="1.0" encoding="UTF-8"?>
<svg style="vertical-align: -0.464ex;" xmlns="http://www.w3.org/2000/svg" width="4.283ex" height="2.891ex" role="img" focusable="false" viewBox="0 -1073 1893 1278" xmlns:xlink="http://www.w3.org/1999/xlink"><title>\hat{f} ^{b-1}</title><defs><path id="MJX-487-TEX-I-1D453" d="M118 -162Q120 -162 124 -164T135 -167T147 -168Q160 -168 171 -155T187 -126Q197 -99 221 27T267 267T289 382V385H242Q195 385 192 387Q188 390 188 397L195 425Q197 430 203 430T250 431Q298 431 298 432Q298 434 307 482T319 540Q356 705 465 705Q502 703 526 683T550 630Q550 594 529 578T487 561Q443 561 443 603Q443 622 454 636T478 657L487 662Q471 668 457 668Q445 668 434 658T419 630Q412 601 403 552T387 469T380 433Q380 431 435 431Q480 431 487 430T498 424Q499 420 496 407T491 391Q489 386 482 386T428 385H372L349 263Q301 15 282 -47Q255 -132 212 -173Q175 -205 139 -205Q107 -205 81 -186T55 -132Q55 -95 76 -78T118 -61Q162 -61 162 -103Q162 -122 151 -136T127 -157L118 -162Z"></path><path id="MJX-487-TEX-N-5E" d="M112 560L249 694L257 686Q387 562 387 560L361 531Q359 532 303 581L250 627L195 580Q182 569 169 557T148 538L140 532Q138 530 125 546L112 560Z"></path><path id="MJX-487-TEX-I-1D44F" d="M73 647Q73 657 77 670T89 683Q90 683 161 688T234 694Q246 694 246 685T212 542Q204 508 195 472T180 418L176 399Q176 396 182 402Q231 442 283 442Q345 442 383 396T422 280Q422 169 343 79T173 -11Q123 -11 82 27T40 150V159Q40 180 48 217T97 414Q147 611 147 623T109 637Q104 637 101 637H96Q86 637 83 637T76 640T73 647ZM336 325V331Q336 405 275 405Q258 405 240 397T207 376T181 352T163 330L157 322L136 236Q114 150 114 114Q114 66 138 42Q154 26 178 26Q211 26 245 58Q270 81 285 114T318 219Q336 291 336 325Z"></path><path id="MJX-487-TEX-N-2212" d="M84 237T84 250T98 270H679Q694 262 694 250T679 230H98Q84 237 84 250Z"></path><path id="MJX-487-TEX-N-31" d="M213 578L200 573Q186 568 160 563T102 556H83V602H102Q149 604 189 617T245 641T273 663Q275 666 285 666Q294 666 302 660V361L303 61Q310 54 315 52T339 48T401 46H427V0H416Q395 3 257 3Q121 3 100 0H88V46H114Q136 46 152 46T177 47T193 50T201 52T207 57T213 61V578Z"></path></defs><g stroke="currentColor" fill="currentColor" stroke-width="0" transform="scale(1,-1)"><g data-mml-node="math"><g data-mml-node="msup"><g data-mml-node="TeXAtom" data-mjx-texclass="ORD"><g data-mml-node="mover"><g data-mml-node="mi"><use data-c="1D453" xlink:href="#MJX-487-TEX-I-1D453"></use></g><g data-mml-node="mo" transform="translate(457,279) translate(-250 0)"><use data-c="5E" xlink:href="#MJX-487-TEX-N-5E"></use></g></g></g><g data-mml-node="TeXAtom" transform="translate(636,363) scale(0.707)" data-mjx-texclass="ORD"><g data-mml-node="mi"><use data-c="1D44F" xlink:href="#MJX-487-TEX-I-1D44F"></use></g><g data-mml-node="mo" transform="translate(429,0)"><use data-c="2212" xlink:href="#MJX-487-TEX-N-2212"></use></g><g data-mml-node="mn" transform="translate(1207,0)"><use data-c="31" xlink:href="#MJX-487-TEX-N-31"></use></g></g></g></g></g></svg>
