<?xml version="1.0" encoding="UTF-8"?>
<svg style="vertical-align: -0.65ex;" xmlns="http://www.w3.org/2000/svg" width="23.519ex" height="3.077ex" role="img" focusable="false" viewBox="0 -1073 10395.2 1360.2" xmlns:xlink="http://www.w3.org/1999/xlink"><title>\hat{\eta}_{i} = \hat{\beta}_{1}x_{i1} + \cdot \cdot \cdot + \hat{\beta}_{p}x_{ip}</title><defs><path id="MJX-626-TEX-I-1D702" d="M21 287Q22 290 23 295T28 317T38 348T53 381T73 411T99 433T132 442Q156 442 175 435T205 417T221 395T229 376L231 369Q231 367 232 367L243 378Q304 442 382 442Q436 442 469 415T503 336V326Q503 302 439 53Q381 -182 377 -189Q364 -216 332 -216Q319 -216 310 -208T299 -186Q299 -177 358 57L420 307Q423 322 423 345Q423 404 379 404H374Q288 404 229 303L222 291L189 157Q156 26 151 16Q138 -11 108 -11Q95 -11 87 -5T76 7T74 17Q74 30 114 189T154 366Q154 405 128 405Q107 405 92 377T68 316T57 280Q55 278 41 278H27Q21 284 21 287Z"></path><path id="MJX-626-TEX-N-5E" d="M112 560L249 694L257 686Q387 562 387 560L361 531Q359 532 303 581L250 627L195 580Q182 569 169 557T148 538L140 532Q138 530 125 546L112 560Z"></path><path id="MJX-626-TEX-I-1D456" d="M184 600Q184 624 203 642T247 661Q265 661 277 649T290 619Q290 596 270 577T226 557Q211 557 198 567T184 600ZM21 287Q21 295 30 318T54 369T98 420T158 442Q197 442 223 419T250 357Q250 340 236 301T196 196T154 83Q149 61 149 51Q149 26 166 26Q175 26 185 29T208 43T235 78T260 137Q263 149 265 151T282 153Q302 153 302 143Q302 135 293 112T268 61T223 11T161 -11Q129 -11 102 10T74 74Q74 91 79 106T122 220Q160 321 166 341T173 380Q173 404 156 404H154Q124 404 99 371T61 287Q60 286 59 284T58 281T56 279T53 278T49 278T41 278H27Q21 284 21 287Z"></path><path id="MJX-626-TEX-N-3D" d="M56 347Q56 360 70 367H707Q722 359 722 347Q722 336 708 328L390 327H72Q56 332 56 347ZM56 153Q56 168 72 173H708Q722 163 722 153Q722 140 707 133H70Q56 140 56 153Z"></path><path id="MJX-626-TEX-I-1D6FD" d="M29 -194Q23 -188 23 -186Q23 -183 102 134T186 465Q208 533 243 584T309 658Q365 705 429 705H431Q493 705 533 667T573 570Q573 465 469 396L482 383Q533 332 533 252Q533 139 448 65T257 -10Q227 -10 203 -2T165 17T143 40T131 59T126 65L62 -188Q60 -194 42 -194H29ZM353 431Q392 431 427 419L432 422Q436 426 439 429T449 439T461 453T472 471T484 495T493 524T501 560Q503 569 503 593Q503 611 502 616Q487 667 426 667Q384 667 347 643T286 582T247 514T224 455Q219 439 186 308T152 168Q151 163 151 147Q151 99 173 68Q204 26 260 26Q302 26 349 51T425 137Q441 171 449 214T457 279Q457 337 422 372Q380 358 347 358H337Q258 358 258 389Q258 396 261 403Q275 431 353 431Z"></path><path id="MJX-626-TEX-N-31" d="M213 578L200 573Q186 568 160 563T102 556H83V602H102Q149 604 189 617T245 641T273 663Q275 666 285 666Q294 666 302 660V361L303 61Q310 54 315 52T339 48T401 46H427V0H416Q395 3 257 3Q121 3 100 0H88V46H114Q136 46 152 46T177 47T193 50T201 52T207 57T213 61V578Z"></path><path id="MJX-626-TEX-I-1D465" d="M52 289Q59 331 106 386T222 442Q257 442 286 424T329 379Q371 442 430 442Q467 442 494 420T522 361Q522 332 508 314T481 292T458 288Q439 288 427 299T415 328Q415 374 465 391Q454 404 425 404Q412 404 406 402Q368 386 350 336Q290 115 290 78Q290 50 306 38T341 26Q378 26 414 59T463 140Q466 150 469 151T485 153H489Q504 153 504 145Q504 144 502 134Q486 77 440 33T333 -11Q263 -11 227 52Q186 -10 133 -10H127Q78 -10 57 16T35 71Q35 103 54 123T99 143Q142 143 142 101Q142 81 130 66T107 46T94 41L91 40Q91 39 97 36T113 29T132 26Q168 26 194 71Q203 87 217 139T245 247T261 313Q266 340 266 352Q266 380 251 392T217 404Q177 404 142 372T93 290Q91 281 88 280T72 278H58Q52 284 52 289Z"></path><path id="MJX-626-TEX-N-2B" d="M56 237T56 250T70 270H369V420L370 570Q380 583 389 583Q402 583 409 568V270H707Q722 262 722 250T707 230H409V-68Q401 -82 391 -82H389H387Q375 -82 369 -68V230H70Q56 237 56 250Z"></path><path id="MJX-626-TEX-N-22C5" d="M78 250Q78 274 95 292T138 310Q162 310 180 294T199 251Q199 226 182 208T139 190T96 207T78 250Z"></path><path id="MJX-626-TEX-I-1D45D" d="M23 287Q24 290 25 295T30 317T40 348T55 381T75 411T101 433T134 442Q209 442 230 378L240 387Q302 442 358 442Q423 442 460 395T497 281Q497 173 421 82T249 -10Q227 -10 210 -4Q199 1 187 11T168 28L161 36Q160 35 139 -51T118 -138Q118 -144 126 -145T163 -148H188Q194 -155 194 -157T191 -175Q188 -187 185 -190T172 -194Q170 -194 161 -194T127 -193T65 -192Q-5 -192 -24 -194H-32Q-39 -187 -39 -183Q-37 -156 -26 -148H-6Q28 -147 33 -136Q36 -130 94 103T155 350Q156 355 156 364Q156 405 131 405Q109 405 94 377T71 316T59 280Q57 278 43 278H29Q23 284 23 287ZM178 102Q200 26 252 26Q282 26 310 49T356 107Q374 141 392 215T411 325V331Q411 405 350 405Q339 405 328 402T306 393T286 380T269 365T254 350T243 336T235 326L232 322Q232 321 229 308T218 264T204 212Q178 106 178 102Z"></path></defs><g stroke="currentColor" fill="currentColor" stroke-width="0" transform="scale(1,-1)"><g data-mml-node="math"><g data-mml-node="msub"><g data-mml-node="TeXAtom" data-mjx-texclass="ORD"><g data-mml-node="mover"><g data-mml-node="mi"><use data-c="1D702" xlink:href="#MJX-626-TEX-I-1D702"></use></g><g data-mml-node="mo" transform="translate(304.1,16) translate(-250 0)"><use data-c="5E" xlink:href="#MJX-626-TEX-N-5E"></use></g></g></g><g data-mml-node="TeXAtom" transform="translate(530,-150) scale(0.707)" data-mjx-texclass="ORD"><g data-mml-node="mi"><use data-c="1D456" xlink:href="#MJX-626-TEX-I-1D456"></use></g></g></g><g data-mml-node="mo" transform="translate(1101.7,0)"><use data-c="3D" xlink:href="#MJX-626-TEX-N-3D"></use></g><g data-mml-node="msub" transform="translate(2157.5,0)"><g data-mml-node="TeXAtom" data-mjx-texclass="ORD"><g data-mml-node="mover"><g data-mml-node="mi"><use data-c="1D6FD" xlink:href="#MJX-626-TEX-I-1D6FD"></use></g><g data-mml-node="mo" transform="translate(366.3,279) translate(-250 0)"><use data-c="5E" xlink:href="#MJX-626-TEX-N-5E"></use></g></g></g><g data-mml-node="TeXAtom" transform="translate(599,-150) scale(0.707)" data-mjx-texclass="ORD"><g data-mml-node="mn"><use data-c="31" xlink:href="#MJX-626-TEX-N-31"></use></g></g></g><g data-mml-node="msub" transform="translate(3160.1,0)"><g data-mml-node="mi"><use data-c="1D465" xlink:href="#MJX-626-TEX-I-1D465"></use></g><g data-mml-node="TeXAtom" transform="translate(605,-150) scale(0.707)" data-mjx-texclass="ORD"><g data-mml-node="mi"><use data-c="1D456" xlink:href="#MJX-626-TEX-I-1D456"></use></g><g data-mml-node="mn" transform="translate(345,0)"><use data-c="31" xlink:href="#MJX-626-TEX-N-31"></use></g></g></g><g data-mml-node="mo" transform="translate(4634.8,0)"><use data-c="2B" xlink:href="#MJX-626-TEX-N-2B"></use></g><g data-mml-node="mo" transform="translate(5635,0)"><use data-c="22C5" xlink:href="#MJX-626-TEX-N-22C5"></use></g><g data-mml-node="mo" transform="translate(6135.2,0)"><use data-c="22C5" xlink:href="#MJX-626-TEX-N-22C5"></use></g><g data-mml-node="mo" transform="translate(6635.5,0)"><use data-c="22C5" xlink:href="#MJX-626-TEX-N-22C5"></use></g><g data-mml-node="mo" transform="translate(7135.7,0)"><use data-c="2B" xlink:href="#MJX-626-TEX-N-2B"></use></g><g data-mml-node="msub" transform="translate(8135.9,0)"><g data-mml-node="TeXAtom" data-mjx-texclass="ORD"><g data-mml-node="mover"><g data-mml-node="mi"><use data-c="1D6FD" xlink:href="#MJX-626-TEX-I-1D6FD"></use></g><g data-mml-node="mo" transform="translate(366.3,279) translate(-250 0)"><use data-c="5E" xlink:href="#MJX-626-TEX-N-5E"></use></g></g></g><g data-mml-node="TeXAtom" transform="translate(599,-150) scale(0.707)" data-mjx-texclass="ORD"><g data-mml-node="mi"><use data-c="1D45D" xlink:href="#MJX-626-TEX-I-1D45D"></use></g></g></g><g data-mml-node="msub" transform="translate(9140.6,0)"><g data-mml-node="mi"><use data-c="1D465" xlink:href="#MJX-626-TEX-I-1D465"></use></g><g data-mml-node="TeXAtom" transform="translate(605,-150) scale(0.707)" data-mjx-texclass="ORD"><g data-mml-node="mi"><use data-c="1D456" xlink:href="#MJX-626-TEX-I-1D456"></use></g><g data-mml-node="mi" transform="translate(345,0)"><use data-c="1D45D" xlink:href="#MJX-626-TEX-I-1D45D"></use></g></g></g></g></g></svg>
